# xmcd
#
# Track frame offsets:
#	150
#	16518
#	42233
#	64716
#	81487
#	106073
#	127591
#	144118
#	169213
#	195328
#	226456
#
# Disc length: 3319 seconds
#
# Revision: 1
# Processed by: cddbd v1.5.2PL0 Copyright (c) Steve Scherf et al.
# Submitted via: audiograbber 1.83.01
#
DISCID=7b0cf50b
DTITLE=Erica Brown Band - Rough Cut Stone
DYEAR=2006
DGENRE=Blues
TTITLE0=I Spent A Month There One Night
TTITLE1=Cajun Moon
TTITLE2=Everyman Hears Different Music
TTITLE3=Rough Cut Stone
TTITLE4=Daner's
TTITLE5=Payin Dues
TTITLE6=Shape I'm In
TTITLE7=Bring Back The Quarters
TTITLE8=Things Are Getting Better
TTITLE9=Hard Faith
TTITLE10=In The Can
EXTD=
EXTT0=
EXTT1=
EXTT2=
EXTT3=
EXTT4=
EXTT5=
EXTT6=
EXTT7=
EXTT8=
EXTT9=
EXTT10=
PLAYORDER=
